<svg xmlns="http://www.w3.org/2000/svg" viewBox="0 0 407 94" width="407" height="94">
  <path fill="#D32F2F" d="M24.5,75.8c-0.9,0-1.6-0.7-1.6-1.6V20.4c0-0.9,0.7-1.6,1.6-1.6h13.2c0.9,0,1.6,0.7,1.6,1.6v43.1l0,0
    c0,0.9,0.7,1.6,1.6,1.6h0c0.9,0,1.6-0.7,1.6-1.6l0,0V20.4c0-0.9,0.7-1.6,1.6-1.6h13.2c0.9,0,1.6,0.7,1.6,1.6v53.8
    c0,0.9-0.7,1.6-1.6,1.6H24.5z"/>
  <path fill="#D32F2F" d="M68.1,56.4c0-10.9,8.8-19.7,19.7-19.7c10.9,0,19.7,8.8,19.7,19.7c0,10.9-8.8,19.7-19.7,19.7
    C76.9,76.1,68.1,67.3,68.1,56.4z M92.8,56.4c0-2.8-2.3-5.1-5.1-5.1c-2.8,0-5.1,2.3-5.1,5.1c0,2.8,2.3,5.1,5.1,5.1
    C90.5,61.5,92.8,59.2,92.8,56.4z"/>
  <path fill="#D32F2F" d="M113.2,75.8c-0.9,0-1.6-0.7-1.6-1.6V39.9c0-0.9,0.7-1.6,1.6-1.6h13.2c0.9,0,1.6,0.7,1.6,1.6v2.6
    c2.9-2.7,6.8-4.3,11-4.3c9,0,16.3,7.3,16.3,16.3v19.7c0,0.9-0.7,1.6-1.6,1.6h-13.2c-0.9,0-1.6-0.7-1.6-1.6V56.9
    c0-1.8-1.4-3.2-3.2-3.2c-1.8,0-3.2,1.4-3.2,3.2v17.3c0,0.9-0.7,1.6-1.6,1.6H113.2z"/>
  <path fill="#D32F2F" d="M162.5,75.8c-0.9,0-1.6-0.7-1.6-1.6V20.4c0-0.9,0.7-1.6,1.6-1.6h13.2c0.9,0,1.6,0.7,1.6,1.6v23.9
    c2.9-2.7,6.8-4.3,11-4.3c9,0,16.3,7.3,16.3,16.3v17.9c0,0.9-0.7,1.6-1.6,1.6H190c-0.9,0-1.6-0.7,1.6-1.6V56.9
    c0-1.8-1.4-3.2-3.2-3.2c-1.8,0-3.2,1.4-3.2,3.2v17.3c0,0.9-0.7,1.6-1.6,1.6H162.5z"/>
  <path fill="#D32F2F" d="M243.8,75.8c-0.9,0-1.6-0.7-1.6-1.6V20.4c0-0.9,0.7-1.6,1.6-1.6h13.2c0.9,0,1.6,0.7,1.6,1.6v43.1
    c0,0.9,0.7,1.6,1.6,1.6c0.9,0,1.6-0.7,1.6-1.6V20.4c0-0.9,0.7-1.6,1.6-1.6h13.2c0.9,0,1.6,0.7,1.6,1.6v53.8
    c0,0.9-0.7,1.6-1.6,1.6H243.8z"/>
  <path fill="#D32F2F" d="M284.5,56.4c0-10.9,8.8-19.7,19.7-19.7c10.9,0,19.7,8.8,19.7,19.7c0,10.9-8.8,19.7-19.7,19.7
    C293.3,76.1,284.5,67.3,284.5,56.4z M309.2,56.4c0-2.8-2.3-5.1-5.1-5.1c-2.8,0-5.1,2.3-5.1,5.1c0,2.8,2.3,5.1,5.1,5.1
    C306.9,61.5,309.2,59.2,309.2,56.4z"/>
  <path fill="#D32F2F" d="M330,75.8c-0.9,0-1.6-0.7-1.6-1.6V20.4c0-0.9,0.7-1.6,1.6-1.6h36.9c0.9,0,1.6,0.7,1.6,1.6v10.8
    c0,0.9-0.7,1.6-1.6,1.6h-19.7c-0.9,0-1.6,0.7-1.6,1.6v6.4c0,0.9,0.7,1.6,1.6,1.6h16.4c0.9,0,1.6,0.7,1.6,1.6v10.8
    c0,0.9-0.7,1.6-1.6,1.6h-16.4c-0.9,0-1.6,0.7-1.6,1.6v5.8c0,0.9,0.7,1.6,1.6,1.6h19.7c0.9,0,1.6,0.7,1.6,1.6v10.8
    c0,0.9-0.7,1.6-1.6,1.6H330z"/>
  <path fill="#D32F2F" d="M213.2,56.9c0-10.9,8.8-19.7,19.7-19.7c5.5,0,10.4,2.2,14,5.8c0.6,0.6,0.6,1.7,0,2.3l-9.3,9.3
    c-0.6,0.6-1.7,0.6-2.3,0c-0.7-0.7-1.7-1.1-2.7-1.1c-2.1,0-3.8,1.7-3.8,3.8c0,2.1,1.7,3.8,3.8,3.8c1,0,2-0.4,2.7-1.1
    c0.6-0.6,1.7-0.6,2.3,0l9.3,9.3c0.6,0.6,0.6,1.7,0,2.3c-3.6,3.6-8.5,5.8-14,5.8C222,76.1,213.2,67.3,213.2,56.9z"/>
</svg>
